<svg viewBox="0 0 370 370" xmlns="http://www.w3.org/2000/svg" xmlns:bx="https://boxy-svg.com">
  <path d="M 34 4 L 336 4 C 353 4 366 18 366 34 L 366 336 C 366 353 353 366 336 366 L 34 366 C 18 366 4 353 4 336 L 4 34 C 4 18 18 4 34 4 Z" stroke="url(#gradient-0)" stroke-miterlimit="1" stroke-width="8" style="fill: rgb(39, 39, 42);"></path>
  <path d="M 99.869 92.617 L 119.341 92.617 L 96.159 172.946 L 72.743 172.946 L 49.677 92.617 L 69.849 92.617 L 84.801 158.11 L 99.869 92.617 Z" style="white-space: pre; fill: rgb(74, 222, 128);"></path>
  <path d="M 303.978 160.428 L 319.74 160.428 L 319.74 172.946 L 268.279 172.946 L 268.279 160.428 L 285.666 160.428 L 285.666 123.913 L 268.855 123.913 L 268.855 111.396 L 303.978 111.396 L 303.978 160.428 Z" style="white-space: pre; fill: rgb(239, 68, 68);"></path>
  <path d="M 292.964 79.174 C 296.132 79.174 298.722 80.159 300.734 82.13 C 302.742 84.1 303.745 86.554 303.745 89.489 C 303.745 92.502 302.742 94.976 300.734 96.91 C 298.722 98.84 296.132 99.805 292.964 99.805 C 289.799 99.805 287.193 98.819 285.144 96.849 C 283.096 94.878 282.072 92.425 282.072 89.489 C 282.072 86.554 283.096 84.1 285.144 82.13 C 287.193 80.159 289.799 79.174 292.964 79.174 Z" style="white-space: pre; fill: rgb(239, 68, 68);"></path>
  <path d="M 243.821 109.544 C 247.533 109.544 250.935 110.161 254.026 111.396 L 250.665 137.13 L 239.074 137.13 L 239.074 125.771 C 235.672 126.389 232.657 128.243 230.028 131.334 C 227.403 134.425 225.357 138.328 223.889 143.042 L 223.889 160.662 L 236.056 160.662 L 236.056 172.946 L 197.456 172.946 L 197.456 160.662 L 205.57 160.662 L 205.57 123.57 L 197.456 123.57 L 197.456 111.396 L 219.596 111.396 L 222.846 125.189 C 225.087 119.935 227.906 116.014 231.303 113.426 C 234.705 110.838 238.878 109.544 243.821 109.544 Z" style="white-space: pre; fill: rgb(239, 68, 68);"></path>
  <path d="M 143.217 147.562 C 144.374 156.912 149.319 161.588 158.052 161.588 C 163.306 161.588 168.56 159.887 173.814 156.485 L 181.118 166.457 C 178.105 169.082 174.511 171.149 170.336 172.658 C 166.166 174.162 161.568 174.914 156.543 174.914 C 149.666 174.914 143.832 173.543 139.04 170.799 C 134.252 168.056 130.64 164.231 128.203 159.325 C 125.77 154.418 124.554 148.721 124.554 142.232 C 124.554 136.05 125.732 130.465 128.087 125.477 C 130.446 120.493 133.884 116.554 138.402 113.659 C 142.924 110.76 148.315 109.311 154.575 109.311 C 160.446 109.311 165.546 110.566 169.876 113.076 C 174.202 115.587 177.544 119.219 179.904 123.975 C 182.259 128.725 183.436 134.386 183.436 140.957 C 183.436 143.504 183.32 145.705 183.087 147.562 L 143.217 147.562 Z" style="white-space: pre; fill: rgb(74, 222, 128); fill-rule: nonzero;"></path>
  <path d="M 154.575 121.595 C 151.251 121.595 148.585 122.813 146.577 125.25 C 144.566 127.683 143.368 131.412 142.983 136.437 L 165.583 136.437 C 165.432 126.542 161.762 121.595 154.575 121.595 Z" style="fill: rgb(51, 51, 51); white-space: pre;"></path>
  <path transform="matrix(6.132906, 0, 0, 6.132906, -632.85199, -976.662415)" style="fill: rgb(51, 51, 51); white-space: pre;"></path>
  <path d="M 93.84 288.858 L 74.828 288.858 L 74.828 223.137 L 52.229 223.137 L 52.229 208.529 L 117.256 208.529 L 115.398 223.137 L 93.84 223.137 L 93.84 288.858 Z M 179.149 271.121 C 179.149 273.362 179.458 275.024 180.075 276.107 C 180.693 277.191 181.735 278.002 183.203 278.542 L 179.382 290.599 C 175.67 290.211 172.579 289.379 170.109 288.103 C 167.636 286.828 165.704 284.955 164.314 282.486 C 161.995 285.188 159.058 287.255 155.501 288.686 C 151.948 290.113 148.162 290.826 144.143 290.826 C 137.805 290.826 132.744 289.029 128.958 285.436 C 125.171 281.846 123.278 277.191 123.278 271.471 C 123.278 264.827 125.905 259.669 131.159 255.998 C 136.413 252.326 143.793 250.49 153.299 250.49 L 161.529 250.49 L 161.529 248.289 C 161.529 241.951 157.471 238.783 149.356 238.783 C 147.27 238.783 144.664 239.073 141.536 239.653 C 138.404 240.234 135.37 241.025 132.435 242.027 L 128.264 229.859 C 132.206 228.391 136.321 227.251 140.61 226.437 C 144.895 225.627 148.777 225.223 152.256 225.223 C 170.185 225.223 179.149 232.486 179.149 247.013 L 179.149 271.121 Z M 150.404 277.733 C 152.489 277.733 154.595 277.134 156.721 275.936 C 158.843 274.738 160.446 273.094 161.529 271.005 L 161.529 260.922 L 157.009 260.922 C 147.119 260.922 142.174 264.013 142.174 270.195 C 142.174 272.591 142.887 274.445 144.314 275.758 C 145.745 277.074 147.775 277.733 150.404 277.733 Z M 215.192 233.57 C 217.126 230.941 219.465 228.892 222.208 227.424 C 224.952 225.957 227.869 225.223 230.96 225.223 C 238.61 225.223 244.307 228.083 248.052 233.803 C 251.802 239.518 253.676 247.555 253.676 257.911 C 253.676 264.322 252.709 270.001 250.775 274.948 C 248.846 279.895 246.026 283.778 242.318 286.595 C 238.61 289.416 234.165 290.826 228.985 290.826 C 225.894 290.826 223.036 290.17 220.411 288.858 C 217.782 287.545 215.579 285.691 213.8 283.295 L 213.107 288.858 L 196.879 288.858 L 196.879 202.85 L 215.192 200.881 L 215.192 233.57 Z M 224.232 277.5 C 231.265 277.5 234.781 271.048 234.781 258.144 C 234.781 250.956 233.969 245.933 232.346 243.076 C 230.723 240.214 228.329 238.783 225.164 238.783 C 221.374 238.783 218.05 241.178 215.192 245.97 L 215.192 271.937 C 217.588 275.645 220.602 277.5 224.232 277.5 Z M 291.112 277.733 C 294.28 277.733 296.772 277.248 298.588 276.279 C 300.403 275.314 301.311 273.867 301.311 271.937 C 301.311 270.543 300.945 269.423 300.213 268.576 C 299.477 267.726 298.105 266.894 296.098 266.08 C 294.086 265.271 290.956 264.285 286.708 263.124 C 280.526 261.501 275.812 259.242 272.566 256.347 C 269.319 253.448 267.696 249.448 267.696 244.345 C 267.696 238.707 270.035 234.109 274.712 230.552 C 279.385 226.999 285.933 225.223 294.356 225.223 C 304.095 225.223 312.403 227.733 319.28 232.754 L 311.976 243.536 C 306.333 240.06 300.654 238.323 294.938 238.323 C 291.925 238.323 289.703 238.709 288.272 239.482 C 286.841 240.254 286.125 241.452 286.125 243.076 C 286.125 244.155 286.493 245.063 287.229 245.799 C 287.961 246.53 289.351 247.283 291.4 248.055 C 293.448 248.828 296.521 249.795 300.618 250.956 C 305.021 252.191 308.633 253.542 311.454 255.01 C 314.276 256.478 316.459 258.449 318.004 260.922 C 319.55 263.396 320.323 266.565 320.323 270.428 C 320.323 274.754 319.008 278.462 316.379 281.553 C 313.754 284.644 310.238 286.963 305.831 288.508 C 301.427 290.054 296.56 290.826 291.228 290.826 C 285.508 290.826 280.33 290.015 275.693 288.392 C 271.057 286.772 267.118 284.493 263.875 281.553 L 273.032 271.238 C 278.592 275.568 284.619 277.733 291.112 277.733 Z" style="white-space: pre; fill: rgb(241, 245, 249);"></path>
</svg>