<svg viewBox="0 0 370 370" xmlns="http://www.w3.org/2000/svg">
  <path d="M34 4h302c17 0 30 14 30 30v302c0 17-13 30-30 30H34c-16 0-30-13-30-30V34C4 18 18 4 34 4Z" stroke="url(#gradient-0)" stroke-miterlimit="1" stroke-width="8" fill="#27272a"/>
  <path d="M100 93h19l-23 80H73L50 93h20l15 65 15-65Z" style="white-space:pre" fill="#4ade80"/>
  <path d="M304 160h16v13h-52v-13h18v-36h-17v-13h35v49Zm-11-81c3 0 6 1 8 3s3 5 3 7c0 4-1 6-3 8s-5 3-8 3-6-1-8-3-3-5-3-8c0-2 1-5 3-7s5-3 8-3Zm-49 31 10 1-3 26h-12v-11c-3 0-6 2-9 5s-5 7-6 12v18h12v12h-39v-12h9v-37h-9v-13h23l3 14c2-5 5-9 8-12 4-2 8-3 13-3Z" style="white-space:pre" fill="#ef4444"/>
  <path d="M143 148c1 9 6 14 15 14 5 0 11-2 16-6l7 10-11 7-13 2c-7 0-13-1-18-4s-8-7-11-12c-2-5-3-10-3-17 0-6 1-12 3-17a28 28 0 0 1 27-16c5 0 11 2 15 4 4 3 8 6 10 11s3 10 3 17v7h-40Z" style="white-space:pre" fill="#4ade80"/>
  <path d="M155 122c-4 0-6 1-8 3-2 3-4 6-4 11h23c-1-9-4-14-11-14Z" style="white-space:pre" fill="#333"/>
  <path d="M94 289H75v-66H52v-14h65l-2 14H94v66Zm85-18 1 5 3 3-4 12-9-3-6-6-8 7-12 2c-6 0-11-2-15-6-4-3-6-8-6-14s3-11 8-15 13-6 22-6h9v-2c0-6-5-9-13-9l-7 1-10 2-4-12a76 76 0 0 1 24-5c18 0 27 7 27 22v24Zm-29 7 7-2 5-5v-10h-5c-10 0-15 3-15 9l2 6 6 2Zm65-44 7-7 9-2c8 0 13 3 17 9s6 14 6 24c0 6-1 12-3 17s-5 9-9 12a21 21 0 0 1-22 2l-6-6-1 6h-16v-86l18-2v33Zm9 44c7 0 11-7 11-20 0-7-1-12-3-15-1-3-4-4-7-4-4 0-7 2-10 7v26c3 4 6 6 9 6Zm67 0 8-2 2-4-1-3-4-3-9-3c-6-1-11-4-14-7-4-3-5-7-5-12s2-10 7-13c4-4 11-6 19-6 10 0 18 3 25 8l-7 11c-6-4-11-6-17-6l-7 1-2 4 1 3 4 2 10 3 10 4c3 1 5 3 7 6 2 2 2 6 2 9 0 5-1 8-4 12-2 3-6 5-10 7l-15 2c-5 0-11-1-15-3-5-1-9-4-12-6l9-11c6 5 12 7 18 7Z" style="white-space:pre" fill="#f1f5f9"/>
</svg>